<?xml version="1.0" encoding="UTF-8" standalone="no"?>
<svg
   xmlns:dc="http://purl.org/dc/elements/1.1/"
   xmlns:cc="http://creativecommons.org/ns#"
   xmlns:rdf="http://www.w3.org/1999/02/22-rdf-syntax-ns#"
   xmlns:svg="http://www.w3.org/2000/svg"
   xmlns="http://www.w3.org/2000/svg"
   xmlns:sodipodi="http://sodipodi.sourceforge.net/DTD/sodipodi-0.dtd"
   xmlns:inkscape="http://www.inkscape.org/namespaces/inkscape"
   version="1.1"
   x="0px"
   y="0px"
   viewBox="0 0 100 100"
   enable-background="new 0 0 70 70"
   xml:space="preserve"
   id="svg22"
   sodipodi:docname="bowser.svg"
   inkscape:version="0.92.3 (2405546, 2018-03-11)"
   width="100"
   height="100"><metadata
     id="metadata28"><rdf:RDF><cc:Work
         rdf:about=""><dc:format>image/svg+xml</dc:format><dc:type
           rdf:resource="http://purl.org/dc/dcmitype/StillImage" /><dc:title></dc:title></cc:Work></rdf:RDF></metadata><defs
     id="defs26" /><sodipodi:namedview
     pagecolor="#ffffff"
     bordercolor="#666666"
     borderopacity="1"
     objecttolerance="10"
     gridtolerance="10"
     guidetolerance="10"
     inkscape:pageopacity="0"
     inkscape:pageshadow="2"
     inkscape:window-width="1920"
     inkscape:window-height="976"
     id="namedview24"
     showgrid="false"
     inkscape:zoom="4"
     inkscape:cx="181.55909"
     inkscape:cy="20.73138"
     inkscape:window-x="1912"
     inkscape:window-y="-8"
     inkscape:window-maximized="1"
     inkscape:current-layer="svg22"
     showguides="false"
     inkscape:pagecheckerboard="true"
     showborder="true"><inkscape:grid
       type="xygrid"
       id="grid14" /></sodipodi:namedview><g
     id="g16"
     transform="matrix(1.3519076,0,0,1.2875689,11.43567,4.9259197)"><path
       stroke-miterlimit="10"
       d="m 47.5,66.029999 v -40 V 6.8299999 C 47.5,5.2504654 46.219536,3.97 44.639999,3.97 H 12.36 C 10.780466,3.97 9.5,5.2504654 9.5,6.8299999 V 66.029997"
       id="path2"
       inkscape:connector-curvature="0"
       style="fill:none;stroke:#000000;stroke-width:2;stroke-linecap:round;stroke-linejoin:round;stroke-miterlimit:10" /><path
       stroke-miterlimit="10"
       d="M 38.725636,25.027937 H 18.274364 C 16.742125,25.027937 15.5,23.785812 15.5,22.253572 v -9.45127 c 0,-1.53224 1.242125,-2.774365 2.774364,-2.774365 h 20.451272 c 1.532238,0 2.774364,1.242125 2.774364,2.774365 v 9.45127 c 0,1.53224 -1.242126,2.774365 -2.774364,2.774365 z"
       id="path4"
       inkscape:connector-curvature="0"
       style="fill:none;stroke:#000000;stroke-width:2;stroke-linecap:round;stroke-linejoin:round;stroke-miterlimit:10" /><line
       stroke-miterlimit="10"
       x1="5.5"
       y1="66.027939"
       x2="51.5"
       y2="66.027939"
       id="line6"
       style="fill:none;stroke:#000000;stroke-width:2;stroke-linecap:round;stroke-linejoin:round;stroke-miterlimit:10" /><path
       stroke-miterlimit="10"
       d="m 35.5,49.340439 c 0,3.865993 -3.134006,7 -7,7 -3.865994,0 -7,-3.134007 -7,-7 0,-3.865994 7,-16.625 7,-16.625 0,0 7,12.759006 7,16.625 z"
       id="path8"
       inkscape:connector-curvature="0"
       style="fill:none;stroke:#000000;stroke-width:2;stroke-linecap:round;stroke-linejoin:round;stroke-miterlimit:10" /><path
       stroke-miterlimit="10"
       d="m 57.5,21.030001 v 30.499998 c 0,1.380001 -1.119999,2.5 -2.5,2.5 -0.689999,0 -1.32,-0.279999 -1.770001,-0.73 -0.45,-0.45 -0.729999,-1.079998 -0.729999,-1.77 V 28.69 c 0,-1.470001 -1.189999,-2.659999 -2.66,-2.659999 H 47.5"
       id="path10"
       inkscape:connector-curvature="0"
       style="fill:none;stroke:#000000;stroke-width:2;stroke-linecap:round;stroke-linejoin:round;stroke-miterlimit:10" /><g
       id="g14"><polyline
         stroke-miterlimit="10"
         points="    59.5,8.4723816 59.5,21.0279369 55.5,21.0279369 55.5,12.0279369 64.5,4.0279374   "
         id="polyline12"
         style="fill:none;stroke:#000000;stroke-width:2;stroke-linecap:round;stroke-linejoin:round;stroke-miterlimit:10" /></g></g></svg>